<?xml version="1.0" encoding="UTF-8"?>
<svg width="148px" height="64px" viewBox="0 0 148 64" version="1.1" xmlns="http://www.w3.org/2000/svg" xmlns:xlink="http://www.w3.org/1999/xlink">
    <!-- Generator: Sketch 52.2 (67145) - http://www.bohemiancoding.com/sketch -->
    <title>Logo</title>
    <desc>Created with Sketch.</desc>
    <g id="Logo" stroke="none" stroke-width="1" fill="none" fill-rule="evenodd">
        <g id="Group-5" fill="#36373a">
            <path d="M74.6436216,50.7416121 L74.6436216,63.458226 L78.9117409,63.458226 C80.2369672,63.458226 81.2086272,63.2192565 81.8267206,62.7410821 C82.1886492,62.468664 82.4713139,62.0878911 82.674597,61.5985278 C82.8777622,61.1095179 82.9794038,60.4215826 82.9794038,59.5347221 C82.9794038,58.6482149 82.7509165,57.9713508 82.2945307,57.5042473 C81.8990357,57.1095767 81.300611,56.8817961 80.4987854,56.8206699 L80.4987854,56.7955834 C81.7960986,56.6233934 82.4448141,55.68106 82.4448141,53.9687008 C82.4448141,52.7735002 82.2164446,51.922915 81.7599411,51.4171807 C81.4981229,51.1280383 81.1334855,50.9072065 80.6656754,50.7542142 C80.1979831,50.6013397 79.4630548,50.5247847 78.4606551,50.5247847 C77.4583732,50.5247847 76.1860287,50.5972175 74.6436216,50.7416121 Z M76.0634229,51.8090247 L77.1576886,51.7422451 C77.6197276,51.7145675 78.1821126,51.7005521 78.8448436,51.7005521 C79.6354803,51.7005521 80.1950386,51.8562532 80.5237541,52.1676555 C80.8522341,52.4843577 81.0165329,53.0154141 81.0165329,53.7602356 L81.0165329,53.9354877 C81.0165329,54.9025543 80.7687302,55.5642252 80.2732425,55.9200294 C79.8388811,56.2369672 79.0620243,56.3952595 77.9427898,56.3952595 L76.0634229,56.3952595 L76.0634229,51.8090247 Z M76.0634229,57.5293338 L79.3543467,57.5293338 C79.6606846,57.5293338 79.9446448,57.5598381 80.2063452,57.6211999 C81.0694148,57.8213029 81.5009496,58.5105337 81.5009496,59.6890099 C81.5009496,60.7063673 81.2809422,61.4124402 80.841163,61.8071108 C80.4903055,62.1185131 79.9056607,62.2740964 79.0872286,62.2740964 L76.0634229,62.2740964 L76.0634229,57.5293338 Z M107.420714,50.5331469 C106.190063,50.5331469 104.669798,50.602753 102.860272,50.7416121 L102.860272,63.458226 L104.280074,63.458226 L104.280074,58.7551564 L105.491292,58.8052116 C105.858756,58.8164004 106.240118,58.8247626 106.635495,58.8301803 L106.727479,58.8301803 C106.983408,59.0915274 107.378903,59.6278837 107.913493,60.4396025 L109.834553,63.458226 L111.505101,63.458226 L109.308443,60.1643577 L108.815547,59.455576 C108.631815,59.1998822 108.445256,58.9552595 108.256106,58.7217078 C109.274877,58.5329113 110.004387,58.0659257 110.444284,57.3207508 C110.87311,56.5870004 111.087464,55.4696503 111.087464,53.9687008 C111.087464,52.7958778 110.861921,51.9508281 110.410953,51.4337873 C109.87071,50.8333603 108.929672,50.5331469 107.587722,50.5331469 L107.420714,50.5331469 Z M104.280074,57.6294442 L104.280074,51.8006625 L105.023482,51.7507251 C105.257505,51.7395363 105.488465,51.7311741 105.716835,51.7256386 C105.945086,51.7201031 106.174752,51.7159809 106.40583,51.7130364 C106.636908,51.7103276 106.876349,51.7089142 107.124152,51.7089142 C107.371954,51.7089142 107.66145,51.7201031 107.992874,51.7422451 C108.324063,51.7646227 108.629106,51.8729775 108.907413,52.0675451 C109.380876,52.3956717 109.61749,53.090438 109.61749,54.1521973 C109.61749,55.4141774 109.458727,56.2980935 109.141318,56.8038278 C108.768082,57.3821126 108.066603,57.6711373 107.036526,57.6711373 C105.783614,57.6711373 104.864836,57.6573574 104.280074,57.6294442 Z M17.9296577,50.5331469 C16.6988885,50.5331469 15.1787413,50.602753 13.3690983,50.7416121 L13.3690983,63.458226 L14.7890173,63.458226 L14.7890173,58.7551564 L16.0001178,58.8052116 C16.3675819,58.8164004 16.7490615,58.8247626 17.1444387,58.8301803 L17.2363047,58.8301803 C17.4923519,59.0915274 17.8878469,59.6278837 18.4224365,60.4396025 L20.3434965,63.458226 L22.0140449,63.458226 L19.817269,60.1643577 L19.3244902,59.455576 C19.1406404,59.1998822 18.9540817,58.9552595 18.7648141,58.7217078 C19.7838204,58.5329113 20.5132131,58.0659257 20.9532278,57.3207508 C21.381936,56.5870004 21.5964078,55.4696503 21.5964078,53.9687008 C21.5964078,52.7958778 21.3707471,51.9508281 20.9197792,51.4337873 C20.379654,50.8333603 19.4384983,50.5331469 18.0966654,50.5331469 L17.9296577,50.5331469 Z M14.7890173,57.6294442 L14.7890173,51.8006625 L15.5324255,51.7507251 C15.7663305,51.7395363 15.9972911,51.7311741 16.2256607,51.7256386 C16.4539124,51.7201031 16.6835775,51.7159809 16.9147736,51.7130364 C17.1457343,51.7103276 17.3851748,51.7089142 17.6330953,51.7089142 C17.8807803,51.7089142 18.1703938,51.7201031 18.5017004,51.7422451 C18.833007,51.7646227 19.1378138,51.8729775 19.4163563,52.0675451 C19.8895841,52.3956717 20.1263158,53.090438 20.1263158,54.1521973 C20.1263158,55.4141774 19.9676702,56.2980935 19.6502613,56.8038278 C19.2771439,57.3821126 18.5754288,57.6711373 17.5453515,57.6711373 C16.2924402,57.6711373 15.3736621,57.6573574 14.7890173,57.6294442 Z M146.39205,50.6998013 L146.39205,59.7974825 L146.575782,61.5485904 L145.816121,59.9726169 L139.935517,50.6998013 L138.808392,50.6998013 L138.808392,63.458226 L140.10276,63.458226 L140.10276,54.4773795 L139.919028,52.7762091 L140.653957,54.2104969 L146.49216,63.458226 L147.686419,63.458226 L147.686419,50.6998013 L146.39205,50.6998013 Z M129.857343,63.458226 L131.2689,63.458226 L131.2689,50.6998013 L129.857343,50.6998013 L129.857343,63.458226 Z M117.682621,50.6998013 L117.682621,63.458226 L124.164004,63.458226 L124.164004,62.2324034 L119.103128,62.2324034 L119.103128,50.6998013 L117.682621,50.6998013 Z M89.4577254,50.6998013 L89.4577254,63.458226 L96.9249025,63.458226 L96.9249025,62.2324034 L90.8776445,62.2324034 L90.8776445,57.5626647 L95.571763,57.5626647 L95.571763,56.3369599 L90.8776445,56.3369599 L90.8776445,51.9341038 L96.6993596,51.9341038 L96.6993596,50.6998013 L89.4577254,50.6998013 Z M58.0036216,63.458226 L59.4151785,63.458226 L59.4151785,50.6998013 L58.0036216,50.6998013 L58.0036216,63.458226 Z M45.6368053,50.6998013 L41.4521899,63.458226 L42.9221642,63.458226 L44.1249025,59.7140964 L49.2701067,59.7140964 L50.5397424,63.458226 L52.0515274,63.458226 L47.5829518,50.6998013 L45.6368053,50.6998013 Z M46.3550092,52.7762091 L46.6140007,51.8256312 L48.869194,58.5216047 L44.5092087,58.5216047 L46.3550092,52.7762091 Z M30.8225837,50.6998013 L26.6379683,63.458226 L28.1079426,63.458226 L29.3107987,59.7140964 L34.4560029,59.7140964 L35.7256386,63.458226 L37.2374236,63.458226 L32.768848,50.6998013 L30.8225837,50.6998013 Z M31.5410232,52.7762091 L31.7998969,51.8256312 L34.0550902,58.5216047 L29.6949871,58.5216047 L31.5410232,52.7762091 Z M0,50.6998013 L0,63.458226 L1.41991903,63.458226 L1.41991903,58.1715716 L6.55676113,58.1715716 L6.55676113,56.9456312 L1.41991903,56.9456312 L1.41991903,51.9341038 L7.34186235,51.9341038 L7.34186235,50.6998013 L0,50.6998013 Z" id="Fill-1"></path>
            <polygon id="Fill-2" points="83.7272874 20.8465219 89.6161354 20.8465219 89.6161354 0 83.7272874 0"></polygon>
            <polygon id="Fill-3" points="71.0544866 30.2686787 76.9433346 30.2686787 76.9433346 0 71.0544866 0"></polygon>
            <polygon id="Fill-4" points="58.3816857 30.2686787 64.2705337 30.2686787 64.2705337 21.1998528 58.3816857 21.1998528"></polygon>
        </g>
    </g>
</svg>