<svg version="1.0" xmlns="http://www.w3.org/2000/svg" width="693.33" height="693.33" viewBox="0 0 520 520"><path d="M227 10c-32.9 4.1-71 17.6-100 35.5-35.8 22.2-66.8 55-86.3 91.6-19.3 36.1-28.4 70.6-29.4 110.6-.6 22.5.4 35.7 4.3 55.7 9.9 50.5 32.6 92.2 70.5 129.1 20.8 20.2 36.4 31 64.3 44.6 25.8 12.6 51.3 20 78.6 23 13.3 1.5 54.6.5 68.7-1.5 38.3-5.7 81.7-24.6 112.8-49.4 24.6-19.6 43.8-41.6 59.8-68.7 16-27 27-58.2 31.7-90.2 1.1-7.6 2-15 2-16.6V271h-41.9l-.6 4.7c-4.9 38.6-18.2 72.4-39.8 101.6-21.2 28.7-51.4 52.1-86.7 67.2-29.1 12.5-67.2 17.9-99.6 14.1-75.5-8.8-139.2-57.1-167.7-127.1-9.9-24.3-13.6-42-14.4-69.2-.8-28.8 1.6-45.7 10.2-72 23.9-72.6 90.1-127.8 165.3-137.8 13.2-1.7 38.1-2 52-.4 92 10 166.2 82.3 179.7 175 1 6.3 1.8 11.5 1.9 11.6.1.1 9.5.5 21 .9l20.9.7-.8-7.9c-1.1-12.6-4.1-28.9-7.9-42.5-11.4-41.6-30.3-74.9-59-104.7-38.8-40-83.1-63.8-137.1-73.3-9.7-1.7-17.1-2.2-38.5-2.4-14.6-.2-29.9 0-34 .5z"/><path d="M237 96c-20.8 1.9-47.2 11.8-67.8 25.3-33.8 22.2-56.3 54.1-66.9 94.7-3.3 12.7-3.6 14.7-4.1 33.2-.2 10.8-.1 22.1.2 25.2l.7 5.6 132.9.2 132.8.3-2.8 8c-13.1 38.5-43.4 65.6-83.5 74.6-3.8.9-11.9 1.3-22 1.3-13.9-.1-17.3-.4-25.5-2.6-24.8-6.7-47.5-22.1-62.5-42.7l-5.9-8.1h-16.7c-25 0-37.9 1-37.9 2.8 0 2 9.8 20.5 15.7 29.6 18.2 28.3 49.3 52.6 80.5 63.1 17.5 5.8 31.1 7.8 54.8 7.9 17.7 0 21.9-.3 31-2.3 21.6-4.6 39.4-12.1 57.2-24 37.1-24.8 63.6-66.9 68.8-109.1 1.3-10.7 1.8-46.5.7-47.7-.5-.4-60.7-1-133.8-1.1-73.1-.2-132.9-.5-132.9-.7 0-1.8 6.1-16.7 9.6-23.5 11.1-21.4 30.5-40.3 51.9-50.5 25.7-12.2 58.9-13.3 84.4-2.9 23 9.3 40.3 22.9 53 41.6l3.2 4.8h9.3c21.4 0 45.6-1.3 45.6-2.5 0-.6-2-5.2-4.4-10.1-12.5-25.8-33.1-49.7-56.1-64.9-31.6-21-67-29.3-109.5-25.5z"/></svg>